<svg xmlns="http://www.w3.org/2000/svg" data-name="Layer 1" viewBox="0 0 168 168"><path fill="#2d4356" d="M61.61694,48.27075a9,9,0,1,0-11.23389,0C44.626,48.48926,40,53.77106,40,60.25v8a2,2,0,0,0,4,0v-8c0-4.41113,3.02832-8,6.75-8h10.5c3.72168,0,6.75,3.58887,6.75,8v8a2,2,0,0,0,4,0v-8C72,53.77106,67.374,48.48926,61.61694,48.27075ZM56,46.25a5,5,0,1,1,5-5A5.00589,5.00589,0,0,1,56,46.25Z"/><path fill="#0bceb2" d="M126,50.25H78a2,2,0,0,0,0,4h48a2,2,0,0,0,0-4Z"/><path fill="#2d4356" d="M126,58.25H102a2,2,0,0,0,0,4h24a2,2,0,0,0,0-4Z"/><path fill="#0bceb2" d="M126 66.25H102a2 2 0 0 0 0 4h24a2 2 0 0 0 0-4zM126 132.25H78a2 2 0 0 0 0 4h48a2 2 0 0 0 0-4z"/><path fill="#2d4356" d="M126,140.25H102a2,2,0,0,0,0,4h24a2,2,0,0,0,0-4Z"/><path fill="#0bceb2" d="M42,86.25H66a2,2,0,0,0,0-4H42a2,2,0,0,0,0,4Z"/><path fill="#2d4356" d="M42 110.25H66a2 2 0 0 0 0-4H42a2 2 0 0 0 0 4zM42 94.25h84a2 2 0 0 0 0-4H42a2 2 0 0 0 0 4z"/><path fill="#0bceb2" d="M42 102.25h84a2 2 0 0 0 0-4H42a2 2 0 0 0 0 4zM42 118.25h84a2 2 0 0 0 0-4H42a2 2 0 0 0 0 4z"/><path fill="#2d4356" d="M42,126.25h60a2,2,0,0,0,0-4H42a2,2,0,0,0,0,4Z"/><circle cx="2" cy="150.25" r="2" fill="#2d4356"/><path fill="#2d4356" d="M11 148.25H8a2 2 0 0 0 0 4h3a2 2 0 0 0 0-4zM160 148.25h-3a2 2 0 0 0 0 4h3a2 2 0 0 0 0-4z"/><circle cx="166" cy="150.25" r="2" fill="#2d4356"/><path fill="#0bceb2" d="M118.15387 156.25h-8.30774a2.00641 2.00641 0 0 0 0 4h8.30774a2.00641 2.00641 0 0 0 0-4zM58.15387 156.25H49.84613a2.00641 2.00641 0 0 0 0 4h8.30774a2.00641 2.00641 0 0 0 0-4zM104 156.25H64a2 2 0 0 0 0 4H79.94v2H72a2 2 0 0 0 0 4H97a2 2 0 0 0 0-4H88.06v-2H104a2 2 0 0 0 0-4z"/><path fill="#2d4356" d="M150.72131 148.25H135.65a5.96038 5.96038 0 0 0 .35-2v-116a6.00656 6.00656 0 0 0-6-6H38a6.00656 6.00656 0 0 0-6 6v116a5.96038 5.96038 0 0 0 .35 2H17.27869a2.017 2.017 0 1 0 0 4H150.72131a2.017 2.017 0 1 0 0-4zM36 30.25a2.00261 2.00261 0 0 1 2-2h92a2.00261 2.00261 0 0 1 2 2v44H36zm2 118a2.00261 2.00261 0 0 1-2-2v-68h96v68a2.00261 2.00261 0 0 1-2 2zM68.30471 8.25a3 3 0 1 0-3-3A3.00344 3.00344 0 0 0 68.30471 8.25zm0-4.5a1.5 1.5 0 1 1-1.5 1.5A1.50148 1.50148 0 0 1 68.30471 3.75zM164 44.25a2 2 0 1 0 2 2A2.00229 2.00229 0 0 0 164 44.25zm0 3a1 1 0 1 1 1-1A1.001 1.001 0 0 1 164 47.25zM144.00244 60.25a2 2 0 1 0 2 2A2.00229 2.00229 0 0 0 144.00244 60.25zm0 3a1 1 0 1 1 1-1A1.001 1.001 0 0 1 144.00244 63.25zM156.30471 1.75a2 2 0 1 0 2 2A2.00229 2.00229 0 0 0 156.30471 1.75zm0 3a1 1 0 1 1 1-1A1.001 1.001 0 0 1 156.30471 4.75zM26 39.10481a2 2 0 1 0-2 2A2.00229 2.00229 0 0 0 26 39.10481zm-3 0a1 1 0 1 1 1 1A1.001 1.001 0 0 1 23 39.10481z"/><polygon fill="#0bceb2" points="10.888 69.261 12.375 67.306 11.436 66.774 10.481 68.964 10.45 68.964 9.48 66.789 8.525 67.337 9.996 69.246 9.996 69.277 7.695 68.98 7.695 70.044 10.011 69.747 10.011 69.778 8.525 71.686 9.416 72.25 10.434 70.044 10.465 70.044 11.404 72.234 12.39 71.671 10.888 69.793 10.888 69.762 13.25 70.044 13.25 68.98 10.888 69.292 10.888 69.261"/><polygon fill="#0bceb2" points="7.43 8.403 6.574 9.502 7.087 9.827 7.673 8.556 7.691 8.556 8.232 9.818 8.799 9.493 7.934 8.412 7.934 8.394 9.295 8.556 9.295 7.944 7.934 8.124 7.934 8.106 8.791 6.98 8.25 6.673 7.7 7.934 7.682 7.934 7.124 6.682 6.574 6.997 7.421 8.097 7.421 8.115 6.096 7.944 6.096 8.556 7.43 8.385 7.43 8.403"/><polygon fill="#0bceb2" points="148.727 26.086 148.727 25.042 146.41 25.349 146.41 25.318 147.868 23.4 146.947 22.879 146.011 25.027 145.98 25.027 145.029 22.894 144.092 23.431 145.535 25.303 145.535 25.334 143.278 25.042 143.278 26.086 145.55 25.794 145.55 25.825 144.092 27.697 144.966 28.25 145.965 26.086 145.995 26.086 146.916 28.234 147.883 27.682 146.41 25.84 146.41 25.81 148.727 26.086"/><polygon fill="#0bceb2" points="114.398 17.519 115.656 15.865 114.862 15.414 114.054 17.267 114.027 17.267 113.207 15.427 112.399 15.891 113.644 17.506 113.644 17.533 111.697 17.281 111.697 18.181 113.657 17.93 113.657 17.956 112.399 19.571 113.153 20.048 114.014 18.181 114.04 18.181 114.835 20.034 115.669 19.558 114.398 17.969 114.398 17.943 116.397 18.181 116.397 17.281 114.398 17.545 114.398 17.519"/></svg>