<?xml version="1.0" ?><svg data-name="Layer 1" id="Layer_1" viewBox="0 0 200 200" xmlns="http://www.w3.org/2000/svg"><path d="M47.28,138.65a2.83,2.83,0,0,1-2.84-2.9c.54-20.14,6.26-35.23,17-44.86C74.54,79.1,91.1,79,97.69,79.53l0-14.3a3.88,3.88,0,0,1,5.81-3.36l50.17,29a3.87,3.87,0,0,1,0,6.7l-50.15,29a3.87,3.87,0,0,1-3.89,0,3.83,3.83,0,0,1-1.93-3.35V108.52c-24.67-2.3-41.82,19.42-48,28.86A2.78,2.78,0,0,1,47.28,138.65ZM93.84,83c-6.92,0-19.8,1.41-30,10.59-9.48,8.51-14.75,21.82-15.67,39.57,7.6-10.79,25.07-30.52,49.91-28.14a3.55,3.55,0,0,1,3.19,3.52v14.62a.28.28,0,0,0,.42.24l50.16-29a.25.25,0,0,0,.13-.23.23.23,0,0,0-.13-.23L101.67,65a.26.26,0,0,0-.28,0,.24.24,0,0,0-.14.23V79.62a3.53,3.53,0,0,1-1.12,2.58,3.63,3.63,0,0,1-2.67.92h0C96.6,83.05,95.36,83,93.84,83Zm3.91-3.45h0Z"/></svg>